<svg data-v-423bf9ae="" xmlns="http://www.w3.org/2000/svg" viewBox="0 0 393 90" class="iconLeft"><!----><!----><!----><g data-v-423bf9ae="" id="9e56899f-384b-4ddc-8ef9-547e40e9cc42" fill="#2B1200" transform="matrix(4.654771016439969,0,0,4.654771016439969,166.38332920389826,1.2684250411267328)"><path d="M1.24 12.61L1.24 2.95L4.59 2.95L4.59 2.95Q5.39 2.95 6.09 3.21L6.09 3.21L6.09 3.21Q6.79 3.47 7.24 4.05L7.24 4.05L7.24 4.05Q7.68 4.63 7.68 5.55L7.68 5.55L7.68 5.55Q7.68 6.17 7.37 6.69L7.37 6.69L7.37 6.69Q7.05 7.20 6.61 7.44L6.61 7.44L6.61 7.44Q7.04 7.61 7.40 7.98L7.40 7.98L7.40 7.98Q7.75 8.36 7.96 8.84L7.96 8.84L7.96 8.84Q8.16 9.32 8.16 9.80L8.16 9.80L8.16 9.80Q8.16 10.67 7.73 11.31L7.73 11.31L7.73 11.31Q7.29 11.94 6.57 12.27L6.57 12.27L6.57 12.27Q5.84 12.61 5.01 12.61L5.01 12.61L1.24 12.61ZM2.98 6.84L4.76 6.84L4.76 6.84Q5.35 6.84 5.72 6.57L5.72 6.57L5.72 6.57Q6.09 6.30 6.09 5.65L6.09 5.65L6.09 5.65Q6.09 5.10 5.68 4.81L5.68 4.81L5.68 4.81Q5.27 4.51 4.62 4.51L4.62 4.51L2.98 4.51L2.98 6.84ZM2.98 10.95L5.04 10.95L5.04 10.95Q5.72 10.95 6.09 10.62L6.09 10.62L6.09 10.62Q6.45 10.28 6.45 9.61L6.45 9.61L6.45 9.61Q6.45 9.26 6.27 8.97L6.27 8.97L6.27 8.97Q6.08 8.68 5.75 8.51L5.75 8.51L5.75 8.51Q5.41 8.33 4.97 8.33L4.97 8.33L2.98 8.33L2.98 10.95ZM9.66 4.48L9.66 2.95L11.40 2.95L11.40 4.48L9.66 4.48ZM9.70 12.61L9.70 5.78L11.35 5.78L11.35 12.61L9.70 12.61ZM16.46 11.54L16.46 11.54Q17.27 11.65 17.82 11.82L17.82 11.82L17.82 11.82Q18.38 12.00 18.75 12.41L18.75 12.41L18.75 12.41Q19.12 12.82 19.12 13.56L19.12 13.56L19.12 13.56Q19.12 14.30 18.73 14.82L18.73 14.82L18.73 14.82Q18.33 15.33 17.65 15.59L17.65 15.59L17.65 15.59Q16.97 15.84 16.10 15.84L16.10 15.84L16.10 15.84Q15.11 15.84 14.39 15.53L14.39 15.53L14.39 15.53Q13.67 15.22 13.29 14.66L13.29 14.66L13.29 14.66Q12.91 14.11 12.91 13.41L12.91 13.41L12.91 13.41Q12.91 13.25 12.93 13.11L12.93 13.11L13.64 12.47L13.64 12.47Q12.97 12.02 12.97 11.12L12.97 11.12L12.97 11.12Q12.97 10.68 13.14 10.33L13.14 10.33L13.14 10.33Q13.30 9.99 13.61 9.71L13.61 9.71L13.61 9.71Q13.34 9.39 13.19 8.99L13.19 8.99L13.19 8.99Q13.04 8.59 13.04 8.14L13.04 8.14L13.04 8.14Q13.04 7.42 13.43 6.85L13.43 6.85L13.43 6.85Q13.81 6.28 14.45 5.95L14.45 5.95L14.45 5.95Q15.09 5.63 15.85 5.63L15.85 5.63L15.85 5.63Q16.29 5.63 16.70 5.75L16.70 5.75L16.70 5.75Q17.11 5.86 17.46 6.07L17.46 6.07L18.50 5.17L19.37 6.23L18.38 7.03L18.38 7.03Q18.68 7.56 18.68 8.22L18.68 8.22L18.68 8.22Q18.68 8.96 18.30 9.53L18.30 9.53L18.30 9.53Q17.92 10.10 17.29 10.41L17.29 10.41L17.29 10.41Q16.65 10.72 15.90 10.72L15.90 10.72L15.90 10.72Q15.21 10.72 14.60 10.45L14.60 10.45L14.60 10.45Q14.40 10.58 14.40 10.81L14.40 10.81L14.40 10.81Q14.40 11.05 14.59 11.17L14.59 11.17L14.59 11.17Q14.78 11.30 15.09 11.36L15.09 11.36L15.09 11.36Q15.40 11.42 16.02 11.48L16.02 11.48L16.02 11.48Q16.14 11.50 16.25 11.52L16.25 11.52L16.25 11.52Q16.37 11.53 16.46 11.54L16.46 11.54ZM15.90 6.92L15.90 6.92Q15.37 6.92 15.07 7.26L15.07 7.26L15.07 7.26Q14.77 7.60 14.77 8.16L14.77 8.16L14.77 8.16Q14.77 8.70 15.06 9.03L15.06 9.03L15.06 9.03Q15.36 9.36 15.90 9.36L15.90 9.36L15.90 9.36Q16.44 9.36 16.73 9.03L16.73 9.03L16.73 9.03Q17.02 8.70 17.02 8.16L17.02 8.16L17.02 8.16Q17.02 7.60 16.73 7.26L16.73 7.26L16.73 7.26Q16.43 6.92 15.90 6.92L15.90 6.92ZM16.11 14.53L16.11 14.53Q16.77 14.53 17.15 14.32L17.15 14.32L17.15 14.32Q17.54 14.12 17.54 13.75L17.54 13.75L17.54 13.75Q17.54 13.51 17.36 13.38L17.36 13.38L17.36 13.38Q17.18 13.25 16.86 13.19L16.86 13.19L16.86 13.19Q16.54 13.13 15.87 13.06L15.87 13.06L15.87 13.06Q15.74 13.04 15.67 13.03L15.67 13.03L15.67 13.03Q15.03 12.96 14.66 12.87L14.66 12.87L14.31 13.45L14.31 13.45Q14.38 13.97 14.86 14.25L14.86 14.25L14.86 14.25Q15.35 14.53 16.11 14.53L16.11 14.53ZM20.76 12.61L20.76 2.95L24.11 2.95L24.11 2.95Q24.91 2.95 25.61 3.21L25.61 3.21L25.61 3.21Q26.31 3.47 26.76 4.05L26.76 4.05L26.76 4.05Q27.20 4.63 27.20 5.55L27.20 5.55L27.20 5.55Q27.20 6.17 26.89 6.69L26.89 6.69L26.89 6.69Q26.57 7.20 26.13 7.44L26.13 7.44L26.13 7.44Q26.56 7.61 26.91 7.98L26.91 7.98L26.91 7.98Q27.27 8.36 27.47 8.84L27.47 8.84L27.47 8.84Q27.68 9.32 27.68 9.80L27.68 9.80L27.68 9.80Q27.68 10.67 27.24 11.31L27.24 11.31L27.24 11.31Q26.81 11.94 26.09 12.27L26.09 12.27L26.09 12.27Q25.36 12.61 24.53 12.61L24.53 12.61L20.76 12.61ZM22.50 6.84L24.27 6.84L24.27 6.84Q24.86 6.84 25.23 6.57L25.23 6.57L25.23 6.57Q25.61 6.30 25.61 5.65L25.61 5.65L25.61 5.65Q25.61 5.10 25.20 4.81L25.20 4.81L25.20 4.81Q24.79 4.51 24.14 4.51L24.14 4.51L22.50 4.51L22.50 6.84ZM22.50 10.95L24.55 10.95L24.55 10.95Q25.24 10.95 25.60 10.62L25.60 10.62L25.60 10.62Q25.97 10.28 25.97 9.61L25.97 9.61L25.97 9.61Q25.97 9.26 25.79 8.97L25.79 8.97L25.79 8.97Q25.60 8.68 25.27 8.51L25.27 8.51L25.27 8.51Q24.93 8.33 24.49 8.33L24.49 8.33L22.50 8.33L22.50 10.95ZM31.08 12.74L31.08 12.74Q30.38 12.74 29.81 12.48L29.81 12.48L29.81 12.48Q29.25 12.22 28.93 11.71L28.93 11.71L28.93 11.71Q28.60 11.20 28.60 10.51L28.60 10.51L28.60 10.51Q28.60 9.46 29.34 9.00L29.34 9.00L29.34 9.00Q30.07 8.53 31.32 8.53L31.32 8.53L33.10 8.53L33.10 8.53Q33.10 7.87 32.75 7.48L32.75 7.48L32.75 7.48Q32.40 7.09 31.75 7.09L31.75 7.09L31.75 7.09Q31.21 7.09 30.80 7.36L30.80 7.36L30.80 7.36Q30.39 7.63 30.15 8.05L30.15 8.05L28.87 7.13L28.87 7.13Q29.39 6.41 30.09 6.02L30.09 6.02L30.09 6.02Q30.78 5.63 31.74 5.63L31.74 5.63L31.74 5.63Q32.66 5.63 33.32 5.99L33.32 5.99L33.32 5.99Q33.99 6.34 34.34 6.99L34.34 6.99L34.34 6.99Q34.69 7.63 34.69 8.46L34.69 8.46L34.69 12.61L33.32 12.61L33.21 11.63L33.21 11.63Q32.79 12.24 32.27 12.49L32.27 12.49L32.27 12.49Q31.74 12.74 31.08 12.74L31.08 12.74ZM31.32 11.33L31.32 11.33Q31.79 11.33 32.19 11.11L32.19 11.11L32.19 11.11Q32.59 10.89 32.84 10.52L32.84 10.52L32.84 10.52Q33.09 10.16 33.10 9.73L33.10 9.73L31.42 9.73L31.42 9.73Q30.88 9.73 30.59 9.97L30.59 9.97L30.59 9.97Q30.31 10.21 30.31 10.56L30.31 10.56L30.31 10.56Q30.31 10.91 30.58 11.12L30.58 11.12L30.58 11.12Q30.84 11.33 31.32 11.33L31.32 11.33ZM38.53 12.74L38.53 12.74Q37.83 12.74 37.24 12.49L37.24 12.49L37.24 12.49Q36.65 12.23 36.24 11.80L36.24 11.80L36.24 11.80Q35.83 11.36 35.66 10.83L35.66 10.83L36.99 10.24L36.99 10.24Q37.17 10.72 37.50 11.04L37.50 11.04L37.50 11.04Q37.84 11.36 38.45 11.36L38.45 11.36L38.45 11.36Q38.81 11.36 39.06 11.24L39.06 11.24L39.06 11.24Q39.31 11.12 39.43 10.93L39.43 10.93L39.43 10.93Q39.55 10.74 39.55 10.55L39.55 10.55L39.55 10.55Q39.55 10.33 39.39 10.19L39.39 10.19L39.39 10.19Q39.23 10.04 38.99 9.96L38.99 9.96L38.99 9.96Q38.75 9.87 38.30 9.75L38.30 9.75L38.30 9.75Q37.63 9.58 37.19 9.39L37.19 9.39L37.19 9.39Q36.76 9.21 36.44 8.81L36.44 8.81L36.44 8.81Q36.12 8.42 36.12 7.76L36.12 7.76L36.12 7.76Q36.12 7.07 36.47 6.59L36.47 6.59L36.47 6.59Q36.82 6.11 37.40 5.87L37.40 5.87L37.40 5.87Q37.97 5.63 38.66 5.63L38.66 5.63L38.66 5.63Q39.53 5.63 40.19 6.02L40.19 6.02L40.19 6.02Q40.85 6.41 41.25 7.12L41.25 7.12L39.96 7.82L39.96 7.82Q39.74 7.44 39.43 7.19L39.43 7.19L39.43 7.19Q39.11 6.95 38.60 6.95L38.60 6.95L38.60 6.95Q38.21 6.95 37.96 7.12L37.96 7.12L37.96 7.12Q37.72 7.29 37.72 7.54L37.72 7.54L37.72 7.54Q37.72 7.73 37.87 7.86L37.87 7.86L37.87 7.86Q38.02 7.99 38.25 8.07L38.25 8.07L38.25 8.07Q38.48 8.16 38.90 8.28L38.90 8.28L38.90 8.28Q39.60 8.48 40.06 8.69L40.06 8.69L40.06 8.69Q40.52 8.89 40.85 9.32L40.85 9.32L40.85 9.32Q41.19 9.75 41.19 10.47L41.19 10.47L41.19 10.47Q41.19 11.22 40.81 11.73L40.81 11.73L40.81 11.73Q40.43 12.24 39.82 12.49L39.82 12.49L39.82 12.49Q39.21 12.74 38.53 12.74L38.53 12.74ZM45.53 12.74L45.53 12.74Q44.40 12.74 43.62 12.26L43.62 12.26L43.62 12.26Q42.84 11.77 42.45 10.97L42.45 10.97L42.45 10.97Q42.07 10.17 42.07 9.21L42.07 9.21L42.07 9.21Q42.07 8.29 42.44 7.46L42.44 7.46L42.44 7.46Q42.81 6.64 43.56 6.14L43.56 6.14L43.56 6.14Q44.32 5.63 45.42 5.63L45.42 5.63L45.42 5.63Q46.54 5.63 47.25 6.15L47.25 6.15L47.25 6.15Q47.96 6.67 48.27 7.45L48.27 7.45L48.27 7.45Q48.58 8.23 48.58 9.08L48.58 9.08L48.58 9.08Q48.58 9.28 48.57 9.47L48.57 9.47L48.57 9.47Q48.55 9.66 48.52 9.73L48.52 9.73L43.83 9.73L43.83 9.73Q44.07 11.23 45.54 11.23L45.54 11.23L45.54 11.23Q46.03 11.23 46.43 11.06L46.43 11.06L46.43 11.06Q46.83 10.89 47.18 10.51L47.18 10.51L48.33 11.51L48.33 11.51Q47.77 12.13 47.08 12.44L47.08 12.44L47.08 12.44Q46.39 12.74 45.53 12.74L45.53 12.74ZM43.83 8.53L46.94 8.53L46.94 8.53Q46.86 7.81 46.46 7.42L46.46 7.42L46.46 7.42Q46.06 7.03 45.40 7.03L45.40 7.03L45.40 7.03Q44.11 7.03 43.83 8.53L43.83 8.53Z"></path></g><defs data-v-423bf9ae=""><linearGradient data-v-423bf9ae="" gradientTransform="rotate(25)" id="4e64f58d-2019-40be-a88c-2b9fbc579a23" x1="0%" y1="0%" x2="100%" y2="0%"><stop data-v-423bf9ae="" offset="0%" style="stop-color: rgb(121, 35, 0); stop-opacity: 1;"></stop><stop data-v-423bf9ae="" offset="100%" style="stop-color: rgb(243, 112, 0); stop-opacity: 1;"></stop></linearGradient></defs><g data-v-423bf9ae="" id="f037a175-8a67-4625-84d1-0e0bac0b926d" transform="matrix(1.521557781662634,0,0,1.521557781662634,0.9222907050360476,1.0000452630597465)" stroke="none" fill="url(#4e64f58d-2019-40be-a88c-2b9fbc579a23)"><path d="M95.295 8.155C93.763 1.389 78.214-2.362 70.184 1.646c-2.884 1.44-5.986 4.477-8.433 7.626H38.25c-2.447-3.149-5.549-6.186-8.433-7.626-8.031-4.008-23.58-.257-25.112 6.509C2.247 19.002-5.129 57.326 5.869 58.98c10.235 1.54 20.609-7.624 27.742-18.169H66.39C73.522 51.356 83.897 60.52 94.131 58.98c10.998-1.654 3.622-39.978 1.164-50.825zM19.896 27.408a7.188 7.188 0 1 1 0-14.376 7.188 7.188 0 0 1 0 14.376zm60.208 0a7.188 7.188 0 1 1 7.188-7.188 7.186 7.186 0 0 1-7.188 7.188z"></path></g><!----></svg>